<svg xmlns="http://www.w3.org/2000/svg" viewBox="0 0 900 540" fill="none">
  <defs><linearGradient id="g" x1="150" y1="70" x2="810" y2="480" gradientUnits="userSpaceOnUse"><stop stop-color="#0F527E" stop-opacity=".68"/><stop offset="1" stop-color="#2D9CE0" stop-opacity=".30"/></linearGradient></defs>
  <g stroke-linecap="round" stroke-linejoin="round">
    <circle cx="660" cy="274" r="146" stroke="#0F527E" stroke-opacity=".30" stroke-width="2.2"/>
    <circle cx="660" cy="274" r="94" stroke="#2D9CE0" stroke-opacity=".32" stroke-width="2.1"/>
    <circle cx="660" cy="274" r="36" stroke="#0F527E" stroke-opacity=".45" stroke-width="2.3"/>
    <path d="M660 177c35-58 92-73 161-44-9 57-48 95-113 97" stroke="url(#g)" stroke-width="2.5"/>
    <path d="M736 236c70-11 115 27 138 99-49 34-104 35-154-4" stroke="url(#g)" stroke-width="2.5"/>
    <path d="M720 334c46 54 42 112-5 172-55-22-84-68-70-132" stroke="url(#g)" stroke-width="2.5"/>
    <path d="M628 364c-22 68-73 99-148 91-12-58 10-109 68-140" stroke="url(#g)" stroke-width="2.5"/>
    <path d="M562 297c-70 11-115-27-138-99 49-34 104-35 154 5" stroke="url(#g)" stroke-width="2.5"/>
    <path d="M592 207c-47-54-43-112 4-172 55 22 84 68 70 132" stroke="url(#g)" stroke-width="2.5"/>
    <path d="M86 350h352M112 306h270M144 262h180M106 394h190" stroke="#0F527E" stroke-opacity=".22" stroke-width="2.1"/>
    <path d="M346 174c71 26 121 82 146 154" stroke="#0F527E" stroke-opacity=".25" stroke-width="2.1" stroke-dasharray="7 11"/>
    <path d="M504 128l-22 48 52-13" stroke="#2D9CE0" stroke-opacity=".34" stroke-width="2.2"/>
  </g>
</svg>